<?xml version="1.0" encoding="UTF-8" standalone="yes"?>
<svg version="1.2" width="512" height="512" baseProfile="tiny-ps" xmlns="http://www.w3.org/2000/svg">
  <title>bimi-svg-tiny-12-ps</title>
  <path d="M0 0 C168.96 0 337.92 0 512 0 C512 168.96 512 337.92 512 512 C343.04 512 174.08 512 0 512 C0 343.04 0 174.08 0 0 Z " fill="#3E914D" transform="translate(0,0)"/>
  <path d="M0 0 C35.97 0 71.94 0 109 0 C109 3.3 109 6.6 109 10 C119.23 10 129.46 10 140 10 C140 13.3 140 16.6 140 20 C146.6 20 153.2 20 160 20 C160 23.63 160 27.26 160 31 C166.93 31 173.86 31 181 31 C181 34.3 181 37.6 181 41 C184.3 41 187.6 41 191 41 C191 44.3 191 47.6 191 51 C194.3 51 197.6 51 201 51 C201 54.3 201 57.6 201 61 C204.3 61 207.6 61 211 61 C211 67.93 211 74.86 211 82 C214.63 82 218.26 82 222 82 C222 88.6 222 95.2 222 102 C225.3 102 228.6 102 232 102 C232 108.6 232 115.2 232 122 C235.3 122 238.6 122 242 122 C242 125.63 242 129.26 242 133 C245.3 133 248.6 133 252 133 C252 135.97 252 138.94 252 142 C245.4 142 238.8 142 232 142 C232 155.53 232 169.06 232 183 C228.7 183 225.4 183 222 183 C222 189.93 222 196.86 222 204 C218.37 204 214.74 204 211 204 C211 213.9 211 223.8 211 234 C207.7 234 204.4 234 201 234 C201 223.77 201 213.54 201 203 C194.4 203 187.8 203 181 203 C181 209.6 181 216.2 181 223 C174.4 223 167.8 223 161 223 C161 216.4 161 209.8 161 203 C154.07 203 147.14 203 140 203 C140 209.93 140 216.86 140 224 C136.7 224 133.4 224 130 224 C130 217.07 130 210.14 130 203 C123.07 203 116.14 203 109 203 C109 213.23 109 223.46 109 234 C106.03 234 103.06 234 100 234 C100 223.77 100 213.54 100 203 C92.74 203 85.48 203 78 203 C78 209.93 78 216.86 78 224 C71.4 224 64.8 224 58 224 C58 217.4 58 210.8 58 204 C51.4 204 44.8 204 38 204 C38 213.9 38 223.8 38 234 C35.69 234 33.38 234 31 234 C31 224.1 31 214.2 31 204 C24.07 204 17.14 204 10 204 C10 207.3 10 210.6 10 214 C6.7 214 3.4 214 0 214 C0 217.3 0 220.6 0 224 C-6.6 224 -13.2 224 -20 224 C-20 217.07 -20 210.14 -20 203 C-23.3 203 -26.6 203 -30 203 C-30 199.7 -30 196.4 -30 193 C-40.56 193 -51.12 193 -62 193 C-62 196.3 -62 199.6 -62 203 C-65.3 203 -68.6 203 -72 203 C-72 213.23 -72 223.46 -72 234 C-75.3 234 -78.6 234 -82 234 C-82 217.17 -82 200.34 -82 183 C-85.3 183 -88.6 183 -92 183 C-92 176.4 -92 169.8 -92 163 C-95.63 163 -99.26 163 -103 163 C-103 153.1 -103 143.2 -103 133 C-109.6 133 -116.2 133 -123 133 C-123 129.37 -123 125.74 -123 122 C-116.4 122 -109.8 122 -103 122 C-103 118.7 -103 115.4 -103 112 C-99.37 112 -95.74 112 -92 112 C-92 105.4 -92 98.8 -92 92 C-88.7 92 -85.4 92 -82 92 C-82 85.07 -82 78.14 -82 71 C-78.7 71 -75.4 71 -72 71 C-72 64.4 -72 57.8 -72 51 C-68.7 51 -65.4 51 -62 51 C-62 47.7 -62 44.4 -62 41 C-58.37 41 -54.74 41 -51 41 C-51 37.7 -51 34.4 -51 31 C-47.7 31 -44.4 31 -41 31 C-41 27.37 -41 23.74 -41 20 C-34.4 20 -27.8 20 -21 20 C-21 16.7 -21 13.4 -21 10 C-14.07 10 -7.14 10 0 10 C0 6.7 0 3.4 0 0 Z " fill="#0B0C0C" transform="translate(189,25)"/>
  <path d="M0 0 C3.3 0 6.6 0 10 0 C10 6.6 10 13.2 10 20 C13.3 20 16.6 20 20 20 C20 23.63 20 27.26 20 31 C23.3 31 26.6 31 30 31 C30 61.36 30 91.72 30 123 C33.3 123 36.6 123 40 123 C40 126.3 40 129.6 40 133 C46.93 133 53.86 133 61 133 C61 136.3 61 139.6 61 143 C83.77 143 106.54 143 130 143 C130 133.1 130 123.2 130 113 C126.7 113 123.4 113 120 113 C120 102.77 120 92.54 120 82 C129.9 82 139.8 82 150 82 C150 78.7 150 75.4 150 72 C156.6 72 163.2 72 170 72 C170 75.3 170 78.6 170 82 C173.3 82 176.6 82 180 82 C180 85.3 180 88.6 180 92 C186.93 92 193.86 92 201 92 C201 95.3 201 98.6 201 102 C204.3 102 207.6 102 211 102 C211 108.93 211 115.86 211 123 C214.3 123 217.6 123 221 123 C221 129.6 221 136.2 221 143 C224.63 143 228.26 143 232 143 C232 146.3 232 149.6 232 153 C235.3 153 238.6 153 242 153 C242 156.63 242 160.26 242 164 C245.3 164 248.6 164 252 164 C252 167.3 252 170.6 252 174 C255.3 174 258.6 174 262 174 C262 180.93 262 187.86 262 195 C265.3 195 268.6 195 272 195 C272 201.6 272 208.2 272 215 C275.63 215 279.26 215 283 215 C283 221.93 283 228.86 283 236 C286.3 236 289.6 236 293 236 C293 238.31 293 240.62 293 243 C152.42 243 11.84 243 -133 243 C-133 237.06 -133 231.12 -133 225 C-129.7 225 -126.4 225 -123 225 C-123 218.07 -123 211.14 -123 204 C-119.7 204 -116.4 204 -113 204 C-113 197.4 -113 190.8 -113 184 C-109.7 184 -106.4 184 -103 184 C-103 177.4 -103 170.8 -103 164 C-99.7 164 -96.4 164 -93 164 C-93 160.7 -93 157.4 -93 154 C-89.37 154 -85.74 154 -82 154 C-82 150.37 -82 146.74 -82 143 C-78.7 143 -75.4 143 -72 143 C-72 139.7 -72 136.4 -72 133 C-68.7 133 -65.4 133 -62 133 C-62 123.1 -62 113.2 -62 103 C-58.7 103 -55.4 103 -52 103 C-52 99.37 -52 95.74 -52 92 C-48.7 92 -45.4 92 -42 92 C-42 88.7 -42 85.4 -42 82 C-38.7 82 -35.4 82 -32 82 C-32 78.7 -32 75.4 -32 72 C-25.07 72 -18.14 72 -11 72 C-11 68.7 -11 65.4 -11 62 C-0.77 62 9.46 62 20 62 C20 58.37 20 54.74 20 51 C13.07 51 6.14 51 -1 51 C-1 47.7 -1 44.4 -1 41 C-4.3 41 -7.6 41 -11 41 C-11 37.7 -11 34.4 -11 31 C-14.3 31 -17.6 31 -21 31 C-21 24.4 -21 17.8 -21 11 C-17.7 11 -14.4 11 -11 11 C-11 14.3 -11 17.6 -11 21 C-7.37 21 -3.74 21 0 21 C0 14.07 0 7.14 0 0 Z " fill="#26282A" transform="translate(159,269)"/>
  <path d="M0 0 C10.56 0 21.12 0 32 0 C32 3.3 32 6.6 32 10 C35.3 10 38.6 10 42 10 C42 16.93 42 23.86 42 31 C48.6 31 55.2 31 62 31 C62 27.7 62 24.4 62 21 C65.3 21 68.6 21 72 21 C72 17.7 72 14.4 72 11 C78.93 11 85.86 11 93 11 C93 20.9 93 30.8 93 41 C95.31 41 97.62 41 100 41 C100 31.1 100 21.2 100 11 C106.6 11 113.2 11 120 11 C120 17.6 120 24.2 120 31 C126.6 31 133.2 31 140 31 C140 24.07 140 17.14 140 10 C147.26 10 154.52 10 162 10 C162 20.23 162 30.46 162 41 C164.97 41 167.94 41 171 41 C171 30.77 171 20.54 171 10 C177.93 10 184.86 10 192 10 C192 16.93 192 23.86 192 31 C195.3 31 198.6 31 202 31 C202 40.9 202 50.8 202 61 C215.53 61 229.06 61 243 61 C243 64.63 243 68.26 243 72 C239.7 72 236.4 72 233 72 C233 78.6 233 85.2 233 92 C229.37 92 225.74 92 222 92 C222 95.3 222 98.6 222 102 C218.7 102 215.4 102 212 102 C212 105.3 212 108.6 212 112 C208.7 112 205.4 112 202 112 C202 115.63 202 119.26 202 123 C195.4 123 188.8 123 182 123 C182 126.3 182 129.6 182 133 C172.1 133 162.2 133 152 133 C152 143.23 152 153.46 152 164 C155.3 164 158.6 164 162 164 C162 173.9 162 183.8 162 194 C139.23 194 116.46 194 93 194 C93 190.7 93 187.4 93 184 C86.07 184 79.14 184 72 184 C72 180.7 72 177.4 72 174 C68.7 174 65.4 174 62 174 C62 143.64 62 113.28 62 82 C58.7 82 55.4 82 52 82 C52 78.37 52 74.74 52 71 C48.7 71 45.4 71 42 71 C42 64.4 42 57.8 42 51 C38.7 51 35.4 51 32 51 C32 57.93 32 64.86 32 72 C28.37 72 24.74 72 21 72 C21 68.37 21 64.74 21 61 C17.7 61 14.4 61 11 61 C11 57.7 11 54.4 11 51 C7.37 51 3.74 51 0 51 C0 47.7 0 44.4 0 41 C-3.3 41 -6.6 41 -10 41 C-10 30.77 -10 20.54 -10 10 C-6.7 10 -3.4 10 0 10 C0 6.7 0 3.4 0 0 Z " fill="#EFCDB5" transform="translate(127,218)"/>
  <path d="M0 0 C3.3 0 6.6 0 10 0 C10 6.6 10 13.2 10 20 C13.3 20 16.6 20 20 20 C20 23.63 20 27.26 20 31 C23.3 31 26.6 31 30 31 C30 61.36 30 91.72 30 123 C33.3 123 36.6 123 40 123 C40 126.3 40 129.6 40 133 C46.93 133 53.86 133 61 133 C61 136.3 61 139.6 61 143 C83.77 143 106.54 143 130 143 C130 133.1 130 123.2 130 113 C126.7 113 123.4 113 120 113 C120 102.77 120 92.54 120 82 C129.9 82 139.8 82 150 82 C150 78.7 150 75.4 150 72 C156.6 72 163.2 72 170 72 C170 75.3 170 78.6 170 82 C173.3 82 176.6 82 180 82 C180 85.3 180 88.6 180 92 C186.93 92 193.86 92 201 92 C201 95.3 201 98.6 201 102 C204.3 102 207.6 102 211 102 C211 108.93 211 115.86 211 123 C214.3 123 217.6 123 221 123 C221 129.6 221 136.2 221 143 C217.7 143 214.4 143 211 143 C211 146.3 211 149.6 211 153 C204.07 153 197.14 153 190 153 C190 156.63 190 160.26 190 164 C186.7 164 183.4 164 180 164 C180 167.3 180 170.6 180 174 C159.87 174 139.74 174 119 174 C119 177.3 119 180.6 119 184 C116.03 184 113.06 184 110 184 C110 197.53 110 211.06 110 225 C107.36 225 104.72 225 102 225 C102 208.17 102 191.34 102 174 C74.94 174 47.88 174 20 174 C20 170.7 20 167.4 20 164 C9.77 164 -0.46 164 -11 164 C-11 160.7 -11 157.4 -11 154 C-17.6 154 -24.2 154 -31 154 C-31 150.37 -31 146.74 -31 143 C-44.53 143 -58.06 143 -72 143 C-72 139.7 -72 136.4 -72 133 C-68.7 133 -65.4 133 -62 133 C-62 123.1 -62 113.2 -62 103 C-58.7 103 -55.4 103 -52 103 C-52 99.37 -52 95.74 -52 92 C-48.7 92 -45.4 92 -42 92 C-42 88.7 -42 85.4 -42 82 C-38.7 82 -35.4 82 -32 82 C-32 78.7 -32 75.4 -32 72 C-25.07 72 -18.14 72 -11 72 C-11 68.7 -11 65.4 -11 62 C-0.77 62 9.46 62 20 62 C20 58.37 20 54.74 20 51 C13.07 51 6.14 51 -1 51 C-1 47.7 -1 44.4 -1 41 C-4.3 41 -7.6 41 -11 41 C-11 37.7 -11 34.4 -11 31 C-14.3 31 -17.6 31 -21 31 C-21 24.4 -21 17.8 -21 11 C-17.7 11 -14.4 11 -11 11 C-11 14.3 -11 17.6 -11 21 C-7.37 21 -3.74 21 0 21 C0 14.07 0 7.14 0 0 Z " fill="#090A0A" transform="translate(159,269)"/>
  <path d="M0 0 C6.6 0 13.2 0 20 0 C20 3.3 20 6.6 20 10 C23.63 10 27.26 10 31 10 C31 13.3 31 16.6 31 20 C37.6 20 44.2 20 51 20 C51 23.3 51 26.6 51 30 C57.6 30 64.2 30 71 30 C71 33.63 71 37.26 71 41 C77.27 41 83.54 41 90 41 C90 51.23 90 61.46 90 72 C93.3 72 96.6 72 100 72 C100 81.9 100 91.8 100 102 C77.23 102 54.46 102 31 102 C31 98.7 31 95.4 31 92 C24.07 92 17.14 92 10 92 C10 88.7 10 85.4 10 82 C6.7 82 3.4 82 0 82 C0 54.94 0 27.88 0 0 Z " fill="#D19A85" transform="translate(189,310)"/>
  <path d="M0 0 C6.93 0 13.86 0 21 0 C21 6.6 21 13.2 21 20 C27.6 20 34.2 20 41 20 C41 13.4 41 6.8 41 0 C47.6 0 54.2 0 61 0 C61 13.53 61 27.06 61 41 C57.7 41 54.4 41 51 41 C51 47.93 51 54.86 51 62 C47.7 62 44.4 62 41 62 C41 58.37 41 54.74 41 51 C27.47 51 13.94 51 0 51 C0 34.17 0 17.34 0 0 Z " fill="#0B0C0A" transform="translate(329,228)"/>
  <path d="M0 0 C0.33 0 0.66 0 1 0 C1 13.53 1 27.06 1 41 C3.97 41 6.94 41 10 41 C10 44.63 10 48.26 10 52 C16.6 52 23.2 52 30 52 C30 55.3 30 58.6 30 62 C36.93 62 43.86 62 51 62 C51 65.3 51 68.6 51 72 C63.87 72 76.74 72 90 72 C90 68.7 90 65.4 90 62 C93.3 62 96.6 62 100 62 C100 71.9 100 81.8 100 92 C77.23 92 54.46 92 31 92 C31 88.7 31 85.4 31 82 C24.07 82 17.14 82 10 82 C10 78.7 10 75.4 10 72 C6.7 72 3.4 72 0 72 C0 48.24 0 24.48 0 0 Z " fill="#F1CFB6" transform="translate(189,320)"/>
  <path d="M0 0 C7.26 0 14.52 0 22 0 C22 13.53 22 27.06 22 41 C18.7 41 15.4 41 12 41 C12 44.63 12 48.26 12 52 C-1.86 52 -15.72 52 -30 52 C-30 48.37 -30 44.74 -30 41 C-33.3 41 -36.6 41 -40 41 C-40 27.8 -40 14.6 -40 1 C-33.4 1 -26.8 1 -20 1 C-20 7.6 -20 14.2 -20 21 C-13.4 21 -6.8 21 0 21 C0 14.07 0 7.14 0 0 Z " fill="#EECDB5" transform="translate(267,228)"/>
  <path d="M0 0 C3.3 0 6.6 0 10 0 C10 6.27 10 12.54 10 19 C13.3 19 16.6 19 20 19 C20 32.53 20 46.06 20 60 C16.7 60 13.4 60 10 60 C10 66.6 10 73.2 10 80 C3.4 80 -3.2 80 -10 80 C-10 76.7 -10 73.4 -10 70 C-13.3 70 -16.6 70 -20 70 C-20 66.7 -20 63.4 -20 60 C-16.7 60 -13.4 60 -10 60 C-10 56.7 -10 53.4 -10 50 C-13.3 50 -16.6 50 -20 50 C-20 46.7 -20 43.4 -20 40 C-16.7 40 -13.4 40 -10 40 C-10 33.07 -10 26.14 -10 19 C-6.7 19 -3.4 19 0 19 C0 12.73 0 6.46 0 0 Z " fill="#F0CEB5" transform="translate(299,138)"/>
  <path d="M0 0 C6.6 0 13.2 0 20 0 C20 3.3 20 6.6 20 10 C23.63 10 27.26 10 31 10 C31 13.3 31 16.6 31 20 C37.6 20 44.2 20 51 20 C51 23.3 51 26.6 51 30 C57.6 30 64.2 30 71 30 C71 33.63 71 37.26 71 41 C77.27 41 83.54 41 90 41 C90 44.3 90 47.6 90 51 C77.13 51 64.26 51 51 51 C51 47.7 51 44.4 51 41 C44.07 41 37.14 41 30 41 C30 37.7 30 34.4 30 31 C26.7 31 23.4 31 20 31 C20 27.37 20 23.74 20 20 C16.7 20 13.4 20 10 20 C10 16.7 10 13.4 10 10 C6.7 10 3.4 10 0 10 C0 6.7 0 3.4 0 0 Z " fill="#92685A" transform="translate(189,310)"/>
  <path d="M0 0 C6.93 0 13.86 0 21 0 C21 3.63 21 7.26 21 11 C24.3 11 27.6 11 31 11 C31 7.37 31 3.74 31 0 C37.93 0 44.86 0 52 0 C52 3.63 52 7.26 52 11 C55.3 11 58.6 11 62 11 C62 17.6 62 24.2 62 31 C55.07 31 48.14 31 41 31 C41 27.7 41 24.4 41 21 C31.1 21 21.2 21 11 21 C11 17.7 11 14.4 11 11 C7.37 11 3.74 11 0 11 C0 7.37 0 3.74 0 0 Z " fill="#2B2A2F" transform="translate(308,96)"/>
  <path d="M0 0 C6.6 0 13.2 0 20 0 C20 6.6 20 13.2 20 20 C26.93 20 33.86 20 41 20 C41 26.6 41 33.2 41 40 C31.1 40 21.2 40 11 40 C11 33.4 11 26.8 11 20 C7.37 20 3.74 20 0 20 C0 13.4 0 6.8 0 0 Z " fill="#EFCDB4" transform="translate(329,229)"/>
  <path d="M0 0 C1.37712662 0.00212242 1.37712662 0.00212242 2.78207397 0.00428772 C5.67506358 0.00982405 8.56797183 0.02236406 11.4609375 0.03515625 C13.43880095 0.0401795 15.41666564 0.04474095 17.39453125 0.04882812 C22.20836403 0.05977252 27.02213704 0.07699207 31.8359375 0.09765625 C31.8359375 3.39765625 31.8359375 6.69765625 31.8359375 10.09765625 C27.8759375 10.09765625 23.9159375 10.09765625 19.8359375 10.09765625 C19.8359375 17.02765625 19.8359375 23.95765625 19.8359375 31.09765625 C13.2359375 31.09765625 6.6359375 31.09765625 -0.1640625 31.09765625 C-0.1640625 24.16765625 -0.1640625 17.23765625 -0.1640625 10.09765625 C-6.7640625 10.09765625 -13.3640625 10.09765625 -20.1640625 10.09765625 C-20.1640625 7.12765625 -20.1640625 4.15765625 -20.1640625 1.09765625 C-13.40159482 0.33244358 -6.80173029 -0.04048696 0 0 Z " fill="#050505" transform="translate(247.1640625,217.90234375)"/>
  <path d="M0 0 C6.6 0 13.2 0 20 0 C20 6.6 20 13.2 20 20 C23.3 20 26.6 20 30 20 C30 16.7 30 13.4 30 10 C33.63 10 37.26 10 41 10 C41 13.63 41 17.26 41 21 C37.7 21 34.4 21 31 21 C31 24.3 31 27.6 31 31 C27.37 31 23.74 31 20 31 C20 27.7 20 24.4 20 21 C13.4 21 6.8 21 0 21 C0 24.3 0 27.6 0 31 C-3.63 31 -7.26 31 -11 31 C-11 24.07 -11 17.14 -11 10 C-7.37 10 -3.74 10 0 10 C0 6.7 0 3.4 0 0 Z " fill="#2D2C31" transform="translate(138,86)"/>
  <path d="M0 0 C6.93 0 13.86 0 21 0 C21 3.3 21 6.6 21 10 C27.93 10 34.86 10 42 10 C42 13.3 42 16.6 42 20 C28.14 20 14.28 20 0 20 C0 13.4 0 6.8 0 0 Z " fill="#2E2C31" transform="translate(209,107)"/>
  <path d="M0 0 C6.93 0 13.86 0 21 0 C21 6.6 21 13.2 21 20 C27.6 20 34.2 20 41 20 C41 13.4 41 6.8 41 0 C47.6 0 54.2 0 61 0 C61 10.23 61 20.46 61 31 C57.7 31 54.4 31 51 31 C51 27.7 51 24.4 51 21 C48.03 21 45.06 21 42 21 C42 27.6 42 34.2 42 41 C41.67 41 41.34 41 41 41 C41 34.4 41 27.8 41 21 C34.07 21 27.14 21 20 21 C20 14.4 20 7.8 20 1 C13.4 1 6.8 1 0 1 C0 0.67 0 0.34 0 0 Z " fill="#262629" transform="translate(329,228)"/>
  <path d="M0 0 C3.63 0 7.26 0 11 0 C11 3.3 11 6.6 11 10 C24.53 10 38.06 10 52 10 C52 13.63 52 17.26 52 21 C38.14 21 24.28 21 10 21 C10 17.37 10 13.74 10 10 C6.7 10 3.4 10 0 10 C0 6.7 0 3.4 0 0 Z " fill="#080908" transform="translate(227,259)"/>
  <path d="M0 0 C0.33 0 0.66 0 1 0 C1 3.3 1 6.6 1 10 C4.3 10 7.6 10 11 10 C11 16.93 11 23.86 11 31 C10.67 31 10.34 31 10 31 C10 24.4 10 17.8 10 11 C6.7 11 3.4 11 0 11 C0 20.9 0 30.8 0 41 C-3.3 41 -6.6 41 -10 41 C-10 34.4 -10 27.8 -10 21 C-13.3 21 -16.6 21 -20 21 C-20 17.37 -20 13.74 -20 10 C-13.4 10 -6.8 10 0 10 C0 6.7 0 3.4 0 0 Z " fill="#C79480" transform="translate(158,218)"/>
  <path d="M0 0 C3.3 0 6.6 0 10 0 C10 3.63 10 7.26 10 11 C6.7 11 3.4 11 0 11 C0 13.97 0 16.94 0 20 C6.6 20 13.2 20 20 20 C20 20.33 20 20.66 20 21 C13.4 21 6.8 21 0 21 C0 30.9 0 40.8 0 51 C-2.31 51 -4.62 51 -7 51 C-7 41.1 -7 31.2 -7 21 C-13.93 21 -20.86 21 -28 21 C-28 20.67 -28 20.34 -28 20 C-21.07 20 -14.14 20 -7 20 C-7 16.7 -7 13.4 -7 10 C-4.69 10 -2.38 10 0 10 C0 6.7 0 3.4 0 0 Z " fill="#352F2F" transform="translate(227,208)"/>
  <path d="M0 0 C9.9 0 19.8 0 30 0 C30 0.33 30 0.66 30 1 C26.7 1 23.4 1 20 1 C20 10.9 20 20.8 20 31 C16.7 31 13.4 31 10 31 C10 24.07 10 17.14 10 10 C6.7 10 3.4 10 0 10 C0 6.7 0 3.4 0 0 Z " fill="#2B2B2F" transform="translate(370,86)"/>
  <path d="M0 0 C3.3 0 6.6 0 10 0 C10 13.53 10 27.06 10 41 C6.7 41 3.4 41 0 41 C0 27.47 0 13.94 0 0 Z " fill="#D09C88" transform="translate(309,157)"/>
  <path d="M0 0 C2.97 0 5.94 0 9 0 C9 6.6 9 13.2 9 20 C12.3 20 15.6 20 19 20 C19 26.6 19 33.2 19 40 C15.7 40 12.4 40 9 40 C8.67 33.73 8.34 27.46 8 21 C5.03 20.67 2.06 20.34 -1 20 C-1.02683697 16.85411056 -1.04675902 13.70844729 -1.0625 10.5625 C-1.07087891 9.66466797 -1.07925781 8.76683594 -1.08789062 7.84179688 C-1.09111328 6.98779297 -1.09433594 6.13378906 -1.09765625 5.25390625 C-1.10551147 4.06776733 -1.10551147 4.06776733 -1.11352539 2.85766602 C-1 1 -1 1 0 0 Z " fill="#060707" transform="translate(361,372)"/>
  <path d="M0 0 C3.63 0 7.26 0 11 0 C11 6.6 11 13.2 11 20 C20.9 20 30.8 20 41 20 C41 20.33 41 20.66 41 21 C31.1 21 21.2 21 11 21 C11 23.97 11 26.94 11 30 C7.37 30 3.74 30 0 30 C0 20.1 0 10.2 0 0 Z " fill="#8E685A" transform="translate(329,249)"/>
  <path d="M0 0 C3.3 0 6.6 0 10 0 C10 6.6 10 13.2 10 20 C13.63 20 17.26 20 21 20 C21 22.31 21 24.62 21 27 C14.07 27 7.14 27 0 27 C0 18.09 0 9.18 0 0 Z " fill="#0E0F0F" transform="translate(431,485)"/>
  <path d="M0 0 C10.89 0 21.78 0 33 0 C33 3.3 33 6.6 33 10 C16.665 10.495 16.665 10.495 0 11 C0 7.37 0 3.74 0 0 Z " fill="#373335" transform="translate(246,198)"/>
  <path d="M0 0 C3.63 0 7.26 0 11 0 C11 6.93 11 13.86 11 21 C7.7 21 4.4 21 1 21 C1 24.3 1 27.6 1 31 C-2.63 31 -6.26 31 -10 31 C-10 27.7 -10 24.4 -10 21 C-6.7 21 -3.4 21 0 21 C0 14.07 0 7.14 0 0 Z " fill="#312F31" transform="translate(278,157)"/>
  <path d="M0 0 C0.33 0 0.66 0 1 0 C0.67 13.53 0.34 27.06 0 41 C-3.3 41 -6.6 41 -10 41 C-10 30.77 -10 20.54 -10 10 C-6.7 10 -3.4 10 0 10 C0 6.7 0 3.4 0 0 Z " fill="#CF9E8A" transform="translate(127,218)"/>
  <path d="M0 0 C3.3 0 6.6 0 10 0 C10 3.3 10 6.6 10 10 C13.3 10 16.6 10 20 10 C20 16.93 20 23.86 20 31 C16.7 31 13.4 31 10 31 C9.67 24.4 9.34 17.8 9 11 C6.03 10.67 3.06 10.34 0 10 C0 6.7 0 3.4 0 0 Z " fill="#0A0C0B" transform="translate(401,433)"/>
  <path d="M0 0 C3.3 0 6.6 0 10 0 C10 3.3 10 6.6 10 10 C13.3 10 16.6 10 20 10 C20 10.33 20 10.66 20 11 C16.7 11 13.4 11 10 11 C10 17.27 10 23.54 10 30 C6.7 29.67 3.4 29.34 0 29 C0 19.43 0 9.86 0 0 Z " fill="#322E31" transform="translate(289,127)"/>
  <path d="M0 0 C9.9 0 19.8 0 30 0 C30 3.3 30 6.6 30 10 C20.1 10 10.2 10 0 10 C0 6.7 0 3.4 0 0 Z " fill="#090808" transform="translate(289,310)"/>
  <path d="M0 0 C6.93 0 13.86 0 21 0 C21 6.6 21 13.2 21 20 C27.6 20 34.2 20 41 20 C41 13.73 41 7.46 41 1 C44.3 1 47.6 1 51 1 C51 7.6 51 14.2 51 21 C48.03 21 45.06 21 42 21 C42 27.6 42 34.2 42 41 C41.67 41 41.34 41 41 41 C41 34.4 41 27.8 41 21 C34.07 21 27.14 21 20 21 C20 14.4 20 7.8 20 1 C13.4 1 6.8 1 0 1 C0 0.67 0 0.34 0 0 Z " fill="#4A474C" transform="translate(329,228)"/>
  <path d="M0 0 C2.97 0 5.94 0 9 0 C9 3.3 9 6.6 9 10 C12.3 10 15.6 10 19 10 C19 13.3 19 16.6 19 20 C12.73 20 6.46 20 0 20 C0 13.4 0 6.8 0 0 Z " fill="#212023" transform="translate(371,249)"/>
  <path d="M0 0 C3.63 0 7.26 0 11 0 C11 3.63 11 7.26 11 11 C7.7 11 4.4 11 1 11 C1 14.3 1 17.6 1 21 C-2.63 21 -6.26 21 -10 21 C-10 17.7 -10 14.4 -10 11 C-16.6 11 -23.2 11 -30 11 C-30 14.3 -30 17.6 -30 21 C-30.33 21 -30.66 21 -31 21 C-31 17.37 -31 13.74 -31 10 C-20.77 10 -10.54 10 0 10 C0 6.7 0 3.4 0 0 Z " fill="#1F1E21" transform="translate(168,96)"/>
  <path d="M0 0 C0.33 0 0.66 0 1 0 C1 16.83 1 33.66 1 51 C0.67 51 0.34 51 0 51 C0 44.4 0 37.8 0 31 C-3.3 31 -6.6 31 -10 31 C-10 24.07 -10 17.14 -10 10 C-6.7 10 -3.4 10 0 10 C0 6.7 0 3.4 0 0 Z " fill="#17181A" transform="translate(260,443)"/>
  <path d="M0 0 C6.93 0 13.86 0 21 0 C21 3.63 21 7.26 21 11 C14.4 11 7.8 11 1 11 C1 17.6 1 24.2 1 31 C0.67 31 0.34 31 0 31 C0 20.77 0 10.54 0 0 Z " fill="#BE8E7B" transform="translate(298,228)"/>
  <path d="M0 0 C3.63 0 7.26 0 11 0 C11 6.93 11 13.86 11 21 C7.37 21 3.74 21 0 21 C0 14.07 0 7.14 0 0 Z " fill="#C99E8B" transform="translate(339,167)"/>
  <path d="M0 0 C6.93 0 13.86 0 21 0 C21 9.9 21 19.8 21 30 C20.67 30 20.34 30 20 30 C20 23.4 20 16.8 20 10 C13.4 10 6.8 10 0 10 C0 6.7 0 3.4 0 0 Z " fill="#C4927F" transform="translate(199,229)"/>
  <path d="M0 0 C6.6 0 13.2 0 20 0 C20 3.3 20 6.6 20 10 C13.73 10 7.46 10 1 10 C1 12.97 1 15.94 1 19 C3.97 19 6.94 19 10 19 C10 19.33 10 19.66 10 20 C6.7 20 3.4 20 0 20 C0 13.4 0 6.8 0 0 Z " fill="#C5C1BD" transform="translate(329,229)"/>
  <path d="M0 0 C6.27 0 12.54 0 19 0 C19 0.33 19 0.66 19 1 C13.06 1 7.12 1 1 1 C1 3.97 1 6.94 1 10 C6.94 10 12.88 10 19 10 C19 13.3 19 16.6 19 20 C12.73 20 6.46 20 0 20 C0 13.4 0 6.8 0 0 Z " fill="#EDE9E6" transform="translate(227,229)"/>
  <path d="M0 0 C3.63 0 7.26 0 11 0 C11 3.3 11 6.6 11 10 C24.53 10 38.06 10 52 10 C52 13.63 52 17.26 52 21 C38.14 21 24.28 21 10 21 C10 17.37 10 13.74 10 10 C6.7 10 3.4 10 0 10 C0 6.7 0 3.4 0 0 Z M11 11 C11 13.97 11 16.94 11 20 C24.2 20 37.4 20 51 20 C51 17.03 51 14.06 51 11 C37.8 11 24.6 11 11 11 Z " fill="#64584D" transform="translate(227,259)"/>
  <path d="M0 0 C3.3 0 6.6 0 10 0 C10 6.93 10 13.86 10 21 C6.7 21 3.4 21 0 21 C0 14.07 0 7.14 0 0 Z " fill="#18191B" transform="translate(97,473)"/>
  <path d="M0 0 C6.93 0 13.86 0 21 0 C21 3.3 21 6.6 21 10 C14.07 10 7.14 10 0 10 C0 6.7 0 3.4 0 0 Z " fill="#050606" transform="translate(349,412)"/>
  <path d="M0 0 C0.33 0 0.66 0 1 0 C1 3.3 1 6.6 1 10 C7.27 10 13.54 10 20 10 C20 13.3 20 16.6 20 20 C13.4 20 6.8 20 0 20 C0 13.4 0 6.8 0 0 Z " fill="#151514" transform="translate(247,229)"/>
  <path d="M0 0 C3.3 0 6.6 0 10 0 C10 6.6 10 13.2 10 20 C6.7 20 3.4 20 0 20 C0 13.4 0 6.8 0 0 Z " fill="#0A0A0A" transform="translate(36,474)"/>
  <path d="M0 0 C3.3 0 6.6 0 10 0 C10 6.6 10 13.2 10 20 C6.7 20 3.4 20 0 20 C0 13.4 0 6.8 0 0 Z " fill="#0B0C0C" transform="translate(421,464)"/>
  <path d="M0 0 C3.3 0 6.6 0 10 0 C10 6.6 10 13.2 10 20 C6.7 20 3.4 20 0 20 C0 13.4 0 6.8 0 0 Z " fill="#090B0A" transform="translate(56,433)"/>
  <path d="M0 0 C6.6 0 13.2 0 20 0 C20 3.3 20 6.6 20 10 C13.4 10 6.8 10 0 10 C0 6.7 0 3.4 0 0 Z " fill="#060707" transform="translate(339,361)"/>
  <path d="M0 0 C3.3 0 6.6 0 10 0 C10 6.6 10 13.2 10 20 C6.7 20 3.4 20 0 20 C0 13.4 0 6.8 0 0 Z " fill="#070A08" transform="translate(360,290)"/>
  <path d="M0 0 C6.6 0 13.2 0 20 0 C20 3.3 20 6.6 20 10 C13.4 10 6.8 10 0 10 C0 6.7 0 3.4 0 0 Z " fill="#D6A18C" transform="translate(329,198)"/>
  <path d="M0 0 C3.3 0 6.6 0 10 0 C10 6.27 10 12.54 10 19 C6.7 19 3.4 19 0 19 C0 12.73 0 6.46 0 0 Z " fill="#080908" transform="translate(46,454)"/>
  <path d="M0 0 C3.3 0 6.6 0 10 0 C10 6.27 10 12.54 10 19 C6.7 19 3.4 19 0 19 C0 12.73 0 6.46 0 0 Z " fill="#D6A18B" transform="translate(299,138)"/>
  <path d="M0 0 C0 6.6 0 13.2 0 20 C-0.33 20 -0.66 20 -1 20 C-1 16.7 -1 13.4 -1 10 C-6.94 10 -12.88 10 -19 10 C-19 7.03 -19 4.06 -19 1 C-16.02085163 0.83300069 -13.04168271 0.66638454 -10.0625 0.5 C-8.78729492 0.42845703 -8.78729492 0.42845703 -7.48632812 0.35546875 C-6.67744141 0.31035156 -5.86855469 0.26523438 -5.03515625 0.21875 C-4.2862915 0.17685547 -3.53742676 0.13496094 -2.76586914 0.09179688 C-1.84464901 0.0439082 -0.92246402 0 0 0 Z " fill="#C6C3BF" transform="translate(247,229)"/>
  <path d="M0 0 C6.27 0 12.54 0 19 0 C19 3.3 19 6.6 19 10 C12.54698539 10.09088753 6.39953542 9.82574651 0 9 C0 6.03 0 3.06 0 0 Z " fill="#F0EDE8" transform="translate(330,239)"/>
  <path d="M0 0 C3.3 0 6.6 0 10 0 C10 5.94 10 11.88 10 18 C6.7 18 3.4 18 0 18 C0 12.06 0 6.12 0 0 Z " fill="#0A0C0B" transform="translate(26,494)"/>
  <path d="M0 0 C3.3 0 6.6 0 10 0 C10 5.94 10 11.88 10 18 C6.7 18 3.4 18 0 18 C0 12.06 0 6.12 0 0 Z " fill="#1A1B1D" transform="translate(107,494)"/>
  <path d="M0 0 C6.6 0 13.2 0 20 0 C20 2.97 20 5.94 20 9 C13.4 9 6.8 9 0 9 C0 6.03 0 3.06 0 0 Z " fill="#212224" transform="translate(350,239)"/>
  <path d="M0 0 C1.98 0 3.96 0 6 0 C6 9.9 6 19.8 6 30 C4.02 30 2.04 30 0 30 C0 20.1 0 10.2 0 0 Z " fill="#070707" transform="translate(220,229)"/>
  <path d="M0 0 C7.26 0 14.52 0 22 0 C22 0.33 22 0.66 22 1 C18.7 1 15.4 1 12 1 C12 4.3 12 7.6 12 11 C8.37 11 4.74 11 1 11 C1 14.3 1 17.6 1 21 C0.67 21 0.34 21 0 21 C0 14.07 0 7.14 0 0 Z " fill="#B68877" transform="translate(267,228)"/>
  <path d="M0 0 C0.33 0 0.66 0 1 0 C1 6.93 1 13.86 1 21 C-2.63 21 -6.26 21 -10 21 C-10 17.7 -10 14.4 -10 11 C-6.7 11 -3.4 11 0 11 C0 7.37 0 3.74 0 0 Z " fill="#AFACA7" transform="translate(158,269)"/>
  <path d="M0 0 C3.3 0 6.6 0 10 0 C10 3.63 10 7.26 10 11 C6.7 11 3.4 11 0 11 C0 7.37 0 3.74 0 0 Z " fill="#1A1A1D" transform="translate(87,453)"/>
  <path d="M0 0 C3.63 0 7.26 0 11 0 C11 3.3 11 6.6 11 10 C7.37 10 3.74 10 0 10 C0 6.7 0 3.4 0 0 Z " fill="#18191C" transform="translate(76,443)"/>
  <path d="M0 0 C3.63 0 7.26 0 11 0 C11 3.3 11 6.6 11 10 C7.37 10 3.74 10 0 10 C0 6.7 0 3.4 0 0 Z " fill="#0B0D0C" transform="translate(66,423)"/>
  <path d="M0 0 C3.3 0 6.6 0 10 0 C10 3.63 10 7.26 10 11 C6.7 11 3.4 11 0 11 C0 7.37 0 3.74 0 0 Z " fill="#936A5B" transform="translate(319,279)"/>
  <path d="M0 0 C3.3 0 6.6 0 10 0 C10 3.63 10 7.26 10 11 C6.7 11 3.4 11 0 11 C0 7.37 0 3.74 0 0 Z " fill="#E2DBD5" transform="translate(148,269)"/>
  <path d="M0 0 C3.3 0 6.6 0 10 0 C10 3.3 10 6.6 10 10 C6.7 10 3.4 10 0 10 C0 6.7 0 3.4 0 0 Z " fill="#191A1D" transform="translate(279,484)"/>
  <path d="M0 0 C3.3 0 6.6 0 10 0 C10 3.3 10 6.6 10 10 C6.7 10 3.4 10 0 10 C0 6.7 0 3.4 0 0 Z " fill="#17181A" transform="translate(279,453)"/>
  <path d="M0 0 C3.3 0 6.6 0 10 0 C10 3.3 10 6.6 10 10 C6.7 10 3.4 10 0 10 C0 6.7 0 3.4 0 0 Z " fill="#0A0B0C" transform="translate(390,423)"/>
  <path d="M0 0 C3.3 0 6.6 0 10 0 C10 3.3 10 6.6 10 10 C6.7 10 3.4 10 0 10 C0 6.7 0 3.4 0 0 Z " fill="#0A0C0B" transform="translate(380,412)"/>
  <path d="M0 0 C3.3 0 6.6 0 10 0 C10 3.3 10 6.6 10 10 C6.7 10 3.4 10 0 10 C0 6.7 0 3.4 0 0 Z " fill="#0B0B0C" transform="translate(77,413)"/>
  <path d="M0 0 C3.3 0 6.6 0 10 0 C10 3.3 10 6.6 10 10 C6.7 10 3.4 10 0 10 C0 6.7 0 3.4 0 0 Z " fill="#070807" transform="translate(329,351)"/>
  <path d="M0 0 C3.3 0 6.6 0 10 0 C10 3.3 10 6.6 10 10 C6.7 10 3.4 10 0 10 C0 6.7 0 3.4 0 0 Z " fill="#0E110E" transform="translate(329,331)"/>
  <path d="M0 0 C3.3 0 6.6 0 10 0 C10 3.3 10 6.6 10 10 C6.7 10 3.4 10 0 10 C0 6.7 0 3.4 0 0 Z " fill="#0F0F0D" transform="translate(339,320)"/>
  <path d="M0 0 C3.3 0 6.6 0 10 0 C10 3.3 10 6.6 10 10 C6.7 10 3.4 10 0 10 C0 6.7 0 3.4 0 0 Z " fill="#0E100E" transform="translate(350,310)"/>
  <path d="M0 0 C3.3 0 6.6 0 10 0 C10 3.3 10 6.6 10 10 C6.7 10 3.4 10 0 10 C0 6.7 0 3.4 0 0 Z " fill="#D59B86" transform="translate(138,269)"/>
  <path d="M0 0 C3.3 0 6.6 0 10 0 C10 3.3 10 6.6 10 10 C6.7 10 3.4 10 0 10 C0 6.7 0 3.4 0 0 Z " fill="#181413" transform="translate(279,259)"/>
  <path d="M0 0 C3.3 0 6.6 0 10 0 C10 3.3 10 6.6 10 10 C6.7 10 3.4 10 0 10 C0 6.7 0 3.4 0 0 Z " fill="#0B0B0B" transform="translate(380,259)"/>
  <path d="M0 0 C3.3 0 6.6 0 10 0 C10 3.3 10 6.6 10 10 C6.7 10 3.4 10 0 10 C0 6.7 0 3.4 0 0 Z " fill="#0D0B09" transform="translate(227,259)"/>
  <path d="M0 0 C3.63 0 7.26 0 11 0 C11 2.97 11 5.94 11 9 C7.37 9.33 3.74 9.66 0 10 C0 6.7 0 3.4 0 0 Z " fill="#CC9682" transform="translate(127,259)"/>
  <path d="M0 0 C3.3 0 6.6 0 10 0 C10 3.3 10 6.6 10 10 C6.7 10 3.4 10 0 10 C0 6.7 0 3.4 0 0 Z " fill="#090A08" transform="translate(117,259)"/>
  <path d="M0 0 C3.3 0 6.6 0 10 0 C10 3.3 10 6.6 10 10 C6.7 10 3.4 10 0 10 C0 6.7 0 3.4 0 0 Z " fill="#131110" transform="translate(329,249)"/>
  <path d="M0 0 C3.3 0 6.6 0 10 0 C10 3.3 10 6.6 10 10 C6.7 10 3.4 10 0 10 C0 6.7 0 3.4 0 0 Z " fill="#151517" transform="translate(370,218)"/>
  <path d="M0 0 C3.3 0 6.6 0 10 0 C10 3.3 10 6.6 10 10 C6.7 10 3.4 10 0 10 C0 6.7 0 3.4 0 0 Z " fill="#D9A893" transform="translate(319,208)"/>
  <path d="M0 0 C3.3 0 6.6 0 10 0 C10 3.3 10 6.6 10 10 C6.7 10 3.4 10 0 10 C0 6.7 0 3.4 0 0 Z " fill="#3B383E" transform="translate(227,208)"/>
  <path d="M0 0 C3.3 0 6.6 0 10 0 C10 3.3 10 6.6 10 10 C6.7 10 3.4 10 0 10 C0 6.7 0 3.4 0 0 Z " fill="#DEAB95" transform="translate(246,198)"/>
  <path d="M0 0 C3.3 0 6.6 0 10 0 C10 3.3 10 6.6 10 10 C6.7 10 3.4 10 0 10 C0 6.7 0 3.4 0 0 Z " fill="#2D2B30" transform="translate(251,107)"/>
  <path d="M0 0 C3.3 0 6.6 0 10 0 C10 3.3 10 6.6 10 10 C6.7 10 3.4 10 0 10 C0 6.7 0 3.4 0 0 Z " fill="#2C2A2F" transform="translate(158,107)"/>
  <path d="M0 0 C3.3 0 6.6 0 10 0 C10 2.97 10 5.94 10 9 C6.7 9 3.4 9 0 9 C0 6.03 0 3.06 0 0 Z " fill="#080706" transform="translate(128,270)"/>
  <path d="M0 0 C2.97 0 5.94 0 9 0 C9 3.3 9 6.6 9 10 C6.03 10 3.06 10 0 10 C0 6.7 0 3.4 0 0 Z " fill="#0A0A0C" transform="translate(371,249)"/>
  <path d="M0 0 C2.97 0 5.94 0 9 0 C9 2.97 9 5.94 9 9 C6.03 9 3.06 9 0 9 C0 6.03 0 3.06 0 0 Z " fill="#2E2B31" transform="translate(169,97)"/>
  <path d="M0 0 C3.63 0 7.26 0 11 0 C11 2.31 11 4.62 11 7 C7.37 7 3.74 7 0 7 C0 4.69 0 2.38 0 0 Z " fill="#0A0E0C" transform="translate(441,505)"/>
  <path d="M0 0 C0.66 0 1.32 0 2 0 C2 3.3 2 6.6 2 10 C1.67 9.34 1.34 8.68 1 8 C0.34 8 -0.32 8 -1 8 C-1.04241723 5.66705225 -1.04092937 3.33297433 -1 1 C-0.67 0.67 -0.34 0.34 0 0 Z " fill="#1B1718" transform="translate(177,290)"/>
  <path d="M0 0 C1.80411967 2.75924185 2.0127245 3.88972103 1.625 7.25 C1.41875 8.1575 1.2125 9.065 1 10 C0.34 10 -0.32 10 -1 10 C-1.02689216 8.52093108 -1.04634621 7.04172517 -1.0625 5.5625 C-1.07410156 4.73878906 -1.08570313 3.91507812 -1.09765625 3.06640625 C-1 1 -1 1 0 0 Z " fill="#131010" transform="translate(290,402)"/>
</svg>